HIERARCHY
ROOT hip
{
  OFFSET 0 0 0
  CHANNELS 6 Xposition Yposition Zposition Zrotation Yrotation Xrotation
  JOINT abdomen
  {
    OFFSET 0 20.6881 -0.73152
    CHANNELS 3 Zrotation Xrotation Yrotation
    JOINT chest
    {
      OFFSET 0 11.7043 -0.48768
      CHANNELS 3 Zrotation Xrotation Yrotation
      JOINT neck
      {
        OFFSET 0 22.1894 -2.19456
        CHANNELS 3 Zrotation Xrotation Yrotation
        JOINT head
        {
          OFFSET -0.24384 7.07133 1.2192
          CHANNELS 3 Zrotation Xrotation Yrotation
          JOINT leftEye
          {
            OFFSET 4.14528 8.04674 8.04672
            CHANNELS 3 Zrotation Xrotation Yrotation
            End Site
            {
              OFFSET 1 0 0
            }
          }
          JOINT rightEye
          {
            OFFSET -3.6576 8.04674 8.04672
            CHANNELS 3 Zrotation Xrotation Yrotation
            End Site
            {
              OFFSET 1 0 0
            }
          }
        }
      }
      JOINT rCollar
      {
        OFFSET -2.68224 19.2634 -4.8768
        CHANNELS 3 Zrotation Xrotation Yrotation
        JOINT rShldr
        {
          OFFSET -8.77824 -1.95073 1.46304
          CHANNELS 3 Zrotation Xrotation Yrotation
          JOINT rForeArm
          {
            OFFSET -28.1742 -1.7115 0.48768
            CHANNELS 3 Zrotation Xrotation Yrotation
            JOINT rHand
            {
              OFFSET -22.5879 0.773209 7.07136
              CHANNELS 3 Zrotation Xrotation Yrotation
              JOINT rThumb1
              {
                OFFSET -1.2192 -0.487915 3.41376
                CHANNELS 3 Zrotation Xrotation Yrotation
                JOINT rThumb2
                {
                  OFFSET -3.37035 -0.52449 3.41376
                  CHANNELS 3 Zrotation Xrotation Yrotation
                  End Site
                  {
                    OFFSET -1.78271 -1.18214 1.43049
                  }
                }
              }
              JOINT rIndex1
              {
                OFFSET -7.75947 0.938293 5.60832
                CHANNELS 3 Zrotation Xrotation Yrotation
                JOINT rIndex2
                {
                  OFFSET -2.54057 -0.884171 1.56538
                  CHANNELS 3 Zrotation Xrotation Yrotation
                  End Site
                  {
                    OFFSET -1.62519 -0.234802 1.16502
                  }
                }
              }
              JOINT rMid1
              {
                OFFSET -8.24714 1.18213 3.41376
                CHANNELS 3 Zrotation Xrotation Yrotation
                JOINT rMid2
                {
                  OFFSET -3.10165 -0.590103 1.0647
                  CHANNELS 3 Zrotation Xrotation Yrotation
                  End Site
                  {
                    OFFSET -2.48547 -0.328903 0.83742
                  }
                }
              }
              JOINT rRing1
              {
                OFFSET -8.82822 0.546677 1.51678
                CHANNELS 3 Zrotation Xrotation Yrotation
                JOINT rRing2
                {
                  OFFSET -2.60934 -0.819778 -0.0198488
                  CHANNELS 3 Zrotation Xrotation Yrotation
                  End Site
                  {
                    OFFSET -2.33842 -0.294052 0.168128
                  }
                }
              }
              JOINT rPinky1
              {
                OFFSET -8.27202 -0.0477905 -0.4584
                CHANNELS 3 Zrotation Xrotation Yrotation
                JOINT rPinky2
                {
                  OFFSET -1.82734 -0.647385 -0.700984
                  CHANNELS 3 Zrotation Xrotation Yrotation
                  End Site
                  {
                    OFFSET -1.69225 -0.51767 -0.607171
                  }
                }
              }
            }
          }
        }
      }
      JOINT lCollar
      {
        OFFSET 2.68224 19.2634 -4.8768
        CHANNELS 3 Zrotation Xrotation Yrotation
        JOINT lShldr
        {
          OFFSET 8.77824 -1.95073 1.46304
          CHANNELS 3 Zrotation Xrotation Yrotation
          JOINT lForeArm
          {
            OFFSET 28.1742 -1.7115 0.48768
            CHANNELS 3 Zrotation Xrotation Yrotation
            JOINT lHand
            {
              OFFSET 22.5879 0.773209 7.07136
              CHANNELS 3 Zrotation Xrotation Yrotation
              JOINT lThumb1
              {
                OFFSET 1.2192 -0.487915 3.41376
                CHANNELS 3 Zrotation Xrotation Yrotation
                JOINT lThumb2
                {
                  OFFSET 3.37035 -0.52449 3.41376
                  CHANNELS 3 Zrotation Xrotation Yrotation
                  End Site
                  {
                    OFFSET 1.78271 -1.18214 1.43049
                  }
                }
              }
              JOINT lIndex1
              {
                OFFSET 7.75947 0.938293 5.60832
                CHANNELS 3 Zrotation Xrotation Yrotation
                JOINT lIndex2
                {
                  OFFSET 2.54057 -0.884171 1.56538
                  CHANNELS 3 Zrotation Xrotation Yrotation
                  End Site
                  {
                    OFFSET 1.62519 -0.234802 1.16502
                  }
                }
              }
              JOINT lMid1
              {
                OFFSET 8.24714 1.18213 3.41376
                CHANNELS 3 Zrotation Xrotation Yrotation
                JOINT lMid2
                {
                  OFFSET 3.10165 -0.590103 1.0647
                  CHANNELS 3 Zrotation Xrotation Yrotation
                  End Site
                  {
                    OFFSET 2.48547 -0.328903 0.83742
                  }
                }
              }
              JOINT lRing1
              {
                OFFSET 8.82822 0.546677 1.51678
                CHANNELS 3 Zrotation Xrotation Yrotation
                JOINT lRing2
                {
                  OFFSET 2.60934 -0.819778 -0.0198488
                  CHANNELS 3 Zrotation Xrotation Yrotation
                  End Site
                  {
                    OFFSET 2.33842 -0.294052 0.168128
                  }
                }
              }
              JOINT lPinky1
              {
                OFFSET 8.27202 -0.0477905 -0.4584
                CHANNELS 3 Zrotation Xrotation Yrotation
                JOINT lPinky2
                {
                  OFFSET 1.82734 -0.647385 -0.700984
                  CHANNELS 3 Zrotation Xrotation Yrotation
                  End Site
                  {
                    OFFSET 1.69225 -0.51767 -0.607171
                  }
                }
              }
            }
          }
        }
      }
    }
  }
  JOINT rButtock
  {
    OFFSET -8.77824 4.35084 1.2192
    CHANNELS 3 Zrotation Xrotation Yrotation
    JOINT rThigh
    {
      OFFSET 0 -1.70687 -2.19456
      CHANNELS 3 Zrotation Xrotation Yrotation
      JOINT rShin
      {
        OFFSET 0 -36.8199 0.73152
        CHANNELS 3 Zrotation Xrotation Yrotation
        JOINT rFoot
        {
          OFFSET 0.73152 -45.1104 -5.12064
          CHANNELS 3 Zrotation Xrotation Yrotation
          End Site
          {
            OFFSET -1.1221 -3.69964 12.103
          }
        }
      }
    }
  }
  JOINT lButtock
  {
    OFFSET 8.77824 4.35084 1.2192
    CHANNELS 3 Zrotation Xrotation Yrotation
    JOINT lThigh
    {
      OFFSET 0 -1.70687 -2.19456
      CHANNELS 3 Zrotation Xrotation Yrotation
      JOINT lShin
      {
        OFFSET 0 -36.8199 0.73152
        CHANNELS 3 Zrotation Xrotation Yrotation
        JOINT lFoot
        {
          OFFSET -0.73152 -45.1104 -5.12064
          CHANNELS 3 Zrotation Xrotation Yrotation
          End Site
          {
            OFFSET 1.1221 -3.69964 12.103
          }
        }
      }
    }
  }
}
MOTION
Frames:	4
Frame Time:	0.00833333
55.4231 81.3092 115.758 -177.525 4.9439 196.456 2.41513 9.14626 7.46509 -0.744349 -12.3588 2.16009 -1.1882 4.24973 0.470494 -2.43532 -39.0693 -1.33631 -0.0 0.0 0.0 -0.0 0.0 0.0 9.33164e-14 -1.43852e-13 -8.58792e-14 19.0474 8.62378 55.3981 -24.8909 -20.8575 52.6199 -0.0276466 4.69181 0.660969 2.03767e-10 -3.06412e-10 2.07331e-10 3.54167e-10 -5.36105e-10 3.56834e-10 2.0377e-10 -3.06411e-10 2.07331e-10 7.73091 5.47488 0.417314 2.03769e-10 -3.06421e-10 2.07341e-10 2.90554 0.965183 0.102902 2.03776e-10 -3.06419e-10 2.07336e-10 10.2786 0.731801 0.0259123 2.0376e-10 -3.06411e-10 2.07343e-10 2.22167 -0.733487 -0.20892 9.33734e-14 -1.43854e-13 -8.60994e-14 -49.4132 38.6146 3.75415 25.0881 -21.2777 -53.3433 0.253874 14.2105 -2.03947 1.96953e-11 1.32751e-09 5.4348e-10 4.42658e-11 2.30336e-09 9.35917e-10 1.96917e-11 1.3275e-09 5.43491e-10 -7.73091 5.47488 -0.417314 1.96956e-11 1.3275e-09 5.43482e-10 -2.90554 0.965183 -0.102902 1.96912e-11 1.32751e-09 5.43482e-10 -10.2786 0.731801 -0.0259123 1.97007e-11 1.32751e-09 5.43471e-10 -2.22167 -0.733487 0.20892 -2.03217e-16 0.0 -3.88251e-19 7.85749 -31.8481 -0.445499 -0.38531 45.6714 0.984099 -4.12699 -7.86285 -15.7035 2.03217e-16 0.0 3.88251e-19 3.10907 -32.3222 -1.18761 0.494525 46.1779 -0.918455 0.876981 -12.096 1.92168
55.4042 82.8284 114.291 -177.849 4.5636 195.078 2.44863 8.4664 7.7873 -0.694561 -12.3692 2.29421 -1.19645 4.7137 0.217918 -2.54269 -36.6484 -1.39524 -0.0 0.0 0.0 -0.0 0.0 0.0 7.02161e-14 -1.21742e-13 -1.16311e-13 18.1547 9.35128 54.2424 -24.8908 -20.8567 52.6248 -0.0333639 5.10154 0.719103 6.30984e-10 1.80812e-09 4.10173e-10 1.09401e-09 3.12052e-09 7.05795e-10 6.30986e-10 1.80812e-09 4.10173e-10 7.73091 5.47488 0.417314 6.30987e-10 1.80812e-09 4.10183e-10 2.90554 0.965183 0.102902 6.3099e-10 1.80812e-09 4.10176e-10 10.2786 0.731801 0.0259123 6.30979e-10 1.80812e-09 4.10183e-10 2.22167 -0.733487 -0.20892 7.02609e-14 -1.21744e-13 -1.16494e-13 -50.2946 40.8984 5.39855 25.0948 -21.2922 -53.3702 0.236278 13.7262 -1.96713 -1.33984e-10 1.98593e-09 1.00907e-09 -2.17158e-10 3.44947e-09 1.7424e-09 -1.33987e-10 1.98592e-09 1.00908e-09 -7.73091 5.47488 -0.417314 -1.33983e-10 1.98593e-09 1.00907e-09 -2.90554 0.965183 -0.102902 -1.33987e-10 1.98593e-09 1.00906e-09 -10.2786 0.731801 -0.0259123 -1.33977e-10 1.98593e-09 1.00905e-09 -2.22167 -0.733487 0.20892 -2.03217e-16 0.0 -3.88251e-19 7.00366 -28.0486 -1.37853 -0.29837 42.2426 0.8197 -2.62616 -4.02896 -13.4366 2.03217e-16 0.0 3.88251e-19 3.12117 -28.6323 -1.10293 0.415428 42.7226 -0.811631 0.396171 -7.8175 0.449733
55.3528 84.464 112.817 -178.205 4.0297 193.735 2.48894 7.76175 8.01317 -0.604873 -12.3542 2.40083 -1.16703 5.19425 0.0111418 -2.70207 -34.0937 -1.40466 -0.0 0.0 0.0 -0.0 0.0 0.0 4.10696e-14 -9.04442e-14 -1.41302e-13 17.3589 10.3701 52.9868 -24.8321 -20.7363 52.3942 -0.0417085 5.71803 0.806547 1.05442e-09 4.68133e-09 5.94213e-10 1.82694e-09 8.09228e-09 1.02235e-09 1.05442e-09 4.68133e-09 5.94214e-10 7.73091 5.47488 0.417314 1.05442e-09 4.68133e-09 5.94223e-10 2.90554 0.965183 0.102902 1.05442e-09 4.68133e-09 5.94214e-10 10.2786 0.731801 0.0259123 1.05441e-09 4.68134e-09 5.94221e-10 2.22167 -0.733487 -0.20892 4.10902e-14 -9.04464e-14 -1.41456e-13 -51.6469 42.8302 7.16338 25.0386 -21.1747 -53.128 0.221171 13.2805 -1.90092 -3.91417e-10 2.27451e-09 1.38569e-09 -6.59109e-10 3.95659e-09 2.39649e-09 -3.9142e-10 2.27451e-09 1.3857e-09 -7.73091 5.47488 -0.417314 -3.91415e-10 2.27451e-09 1.38569e-09 -2.90554 0.965183 -0.102902 -3.91419e-10 2.27451e-09 1.38568e-09 -10.2786 0.731801 -0.0259123 -3.91408e-10 2.27452e-09 1.38567e-09 -2.22167 -0.733487 0.20892 -2.03217e-16 0.0 -3.88251e-19 6.42635 -24.2907 -1.84627 -0.225109 38.804 0.672776 -1.44139 0.0326522 -11.9692 2.03217e-16 0.0 3.88251e-19 2.9803 -24.9775 -1.36328 0.346361 39.172 -0.707384 0.204937 -3.12433 -0.609352
55.3422 86.1973 111.433 -178.327 3.2013 192.545 2.52733 7.00035 8.0699 -0.487119 -12.2027 2.44705 -1.06694 5.6747 -0.06733 -2.90404 -31.644 -1.2552 -0.0 0.0 0.0 -0.0 0.0 0.0 1.80918e-14 -2.54433e-14 -1.38255e-13 16.5956 11.4737 51.7873 -24.7387 -20.5462 52.0391 -0.0516821 6.474 0.913792 1.00772e-09 4.6668e-09 4.7424e-10 1.74505e-09 8.07042e-09 8.16696e-10 1.00772e-09 4.66679e-09 4.7424e-10 7.73091 5.47488 0.417314 1.00773e-09 4.6668e-09 4.74249e-10 2.90554 0.965183 0.102902 1.00773e-09 4.66679e-09 4.74239e-10 10.2786 0.731801 0.0259123 1.00772e-09 4.6668e-09 4.74246e-10 2.22167 -0.733487 -0.20892 1.80882e-14 -2.54454e-14 -1.38404e-13 -53.3398 44.3846 9.00319 24.9507 -20.9906 -52.7753 0.216032 13.1244 -1.8778 -3.41095e-10 2.26725e-09 1.36718e-09 -5.73297e-10 3.94308e-09 2.36486e-09 -3.41098e-10 2.26725e-09 1.36718e-09 -7.73091 5.47488 -0.417314 -3.41092e-10 2.26725e-09 1.36718e-09 -2.90554 0.965183 -0.102902 -3.41097e-10 2.26725e-09 1.36717e-09 -10.2786 0.731801 -0.0259123 -3.41085e-10 2.26725e-09 1.36716e-09 -2.22167 -0.733487 0.20892 -2.03217e-16 0.0 -3.88251e-19 6.23033 -20.8548 -1.49109 -0.166035 35.5444 0.550175 -0.494625 3.79925 -12.3907 2.03217e-16 0.0 3.88251e-19 2.60597 -21.5739 -2.31024 0.287915 35.5981 -0.595672 0.273931 1.78685 -0.57643
